<svg width="1000" height="1000" viewBox="0 0 1000 1000" fill="none" xmlns="http://www.w3.org/2000/svg">
<g clip-path="url(#clip0_1_6)">
<path d="M66.5 24.9994C72.361 -9.1829 112 -6.99994 117.5 22.4994C131.631 98.2907 119.874 198.431 138 259.389C148.344 294.177 158.929 332.645 195.5 314.999C364 233.696 448.501 259.389 559.501 394.999C581.517 421.897 570.566 317.073 638.001 269.457C657.398 255.761 649.426 219.311 706.654 175.01C742.512 147.253 828.286 113.923 806.193 197.655C793.46 245.914 786.196 249.313 783.604 259.389C779.347 275.933 795.389 288.508 811.117 269.457C826.846 250.406 1033.8 70.7462 933.772 344.108C923.976 370.883 1066.83 471.075 917.422 610.204C880.268 644.802 864.605 637.925 840.953 641.999C805.836 648.051 800.999 885.501 743 912C727 958.5 692 950.5 675 925.5C630.609 860.219 673.501 752 569.501 755.999C465.501 759.999 468 768.999 374 831.999C280 894.999 264.5 813.499 264.5 772.999C264.5 718.573 232 669 186 744.499C166.855 775.922 104.5 778.499 104.5 668.999C104.5 613 -13.5001 610.204 33 436.999C49.2572 376.444 99.8319 392.148 75.5 344.108C30.401 255.066 49.4996 124.153 66.5 24.9994ZM717.13 366.983C689.517 366.696 666.833 395.339 666.462 430.959C666.091 466.58 688.175 495.689 715.788 495.976C743.401 496.263 766.085 467.621 766.456 432C766.827 396.38 744.743 367.27 717.13 366.983ZM862.55 365.943C834.937 365.655 812.251 394.299 811.881 429.919C811.51 465.54 833.594 494.648 861.207 494.936C888.82 495.223 911.505 466.58 911.876 430.959C912.246 395.339 890.162 366.23 862.55 365.943ZM913.164 257.533C909.086 248.605 898.936 249.987 894.154 252.862C889.373 255.736 852.92 277.539 857.271 289.12C860.743 298.357 887.41 307.858 897.519 310.413C899.502 310.914 901.626 310.595 902.865 308.967C909.924 299.698 916.842 265.585 913.164 257.533ZM766.75 205.866C761.195 200.345 744.88 208.19 732.17 213.834C722.535 218.113 717.97 221.861 709.664 227.956C704.033 232.089 700.484 236.672 696.564 243.738C693.491 249.28 694.645 251.987 696.452 254.337C698.26 256.688 706.657 259.481 714.131 259.97C721.605 260.459 729.108 262.462 737.723 258.366C748.18 253.393 752.379 247.336 757.801 235.964C763.195 224.652 772.304 211.386 766.75 205.866Z" fill="black"/>
</g>
<defs>
<clipPath id="clip0_1_6">
<rect width="1000" height="1000" fill="white"/>
</clipPath>
</defs>
</svg>
