<svg width="1000" height="1000" viewBox="0 0 1000 1000" fill="none" xmlns="http://www.w3.org/2000/svg">
<g clip-path="url(#clip0_1_4)">
<path d="M632.962 127.744C658.689 90.4045 730.281 32.5869 734.676 119.073C737.208 168.92 731.32 174.368 731.912 184.756C732.884 201.811 751.988 208.917 761.184 185.988C770.381 163.058 912.96 -70.9918 900.722 219.839C899.526 248.325 1066.07 300.373 966.001 478.323C941.116 522.574 835.499 546.5 817.744 552.656C817.744 598.999 843 610.499 877.5 642.999C916.515 679.753 1014.5 731.999 915 791.499C889 791.499 911.104 801.172 900.722 819.999C863.5 887.499 821.217 828.309 794 809.999C766.5 791.499 703 738.999 683 714.499C665.399 692.938 660.5 695.999 632.962 690.499C599.039 683.724 499.5 716.499 398.5 690.499C371.5 674.911 344 690.499 318 707.999C296.486 722.479 214.5 772.999 167 801.499C119.5 829.999 82.1737 786.818 133.5 720.999C176 666.499 190.5 687.499 188.5 660.499C186.5 633.499 159.5 656.999 138.5 652.999C117.5 648.999 103 636 48.4998 690.499C-6.0001 744.999 -22.5 630.499 39.4998 568.499C71.9997 535.999 80.5642 532.825 127.5 498.499C161 473.999 124.298 444.717 102 428.999C71.4999 407.499 50.168 378.069 39.4998 347C10.9997 264 -11.9999 98.0011 29.9998 90.5003C65.4997 84.1609 69.4998 130.367 80.9998 184.756C92.4997 239.145 118.074 288.5 138.5 318.499C158.925 348.499 193.5 393.999 226 385.499C252 378.699 256.5 333.5 536.441 363.662C571 367.386 536.441 304.999 586.219 239.145C600.538 220.203 591.9 187.339 632.962 127.744ZM736.188 271C708.574 271 686.188 299.878 686.188 335.5C686.188 371.123 708.574 400 736.188 400C763.802 400 786.188 371.123 786.188 335.5C786.188 299.878 763.802 271 736.188 271ZM888.188 271C860.574 271 838.188 299.878 838.188 335.5C838.188 371.123 860.574 400 888.188 400C915.802 400 938.188 371.123 938.188 335.5C938.188 299.878 915.802 271 888.188 271ZM688.078 123.995C682.014 121.119 671.467 133.996 663.109 143.614C656.774 150.904 654.29 155.883 649.554 164.301C646.344 170.008 644.918 175.359 643.948 183.044C643.187 189.072 644.918 191.053 647.058 192.48C649.199 193.906 656.689 193.333 662.753 191.053C668.816 188.773 675.361 187.824 680.944 181.066C687.721 172.862 689.217 165.968 690.077 153.921C690.933 141.937 694.141 126.872 688.078 123.995ZM853.617 131.37C846.427 124.48 837.361 129.573 833.922 134.067C830.483 138.561 804.222 172.715 812.663 182.002C819.407 189.423 848.226 188.404 858.681 187.033C860.708 186.767 862.564 185.69 863.124 183.724C866.349 172.399 860.11 137.593 853.617 131.37Z" fill="black"/>
</g>
<defs>
<clipPath id="clip0_1_4">
<rect width="1000" height="1000" fill="white"/>
</clipPath>
</defs>
</svg>
