<svg width="1000" height="1000" viewBox="0 0 1000 1000" fill="none" xmlns="http://www.w3.org/2000/svg">
<path d="M755.075 126.534C763.299 103.239 904.137 -162.853 895.913 154.49C929.266 183.5 1053.54 233.027 973.703 401.951C970.967 407.74 967.451 413.336 962.89 417.828C929.533 450.679 871.729 463.161 826.522 495.128C778.206 529.296 795.682 574.334 791.056 612.125C786.43 649.917 727.833 796.423 658.442 849.227C589.052 902.031 557.183 849.227 582.369 753.972C620.38 610.216 357.327 687.622 416.345 783.948C441.734 825.386 438.663 899.484 416.345 914.973C386.782 935.489 323.963 880.436 248.265 810.917C229.761 801.772 210.21 803.576 238.451 853.15C256.441 884.729 272.002 906.472 275.974 926.661C283.984 967.385 238.451 1019.33 178.874 977.614C83.9148 911.126 0 855.648 0 691.323C4.5277e-05 596.068 17.9536 539.361 28.4541 495.128C34.8516 468.179 12.9062 448.935 2.45312 372.748C-10.7807 276.294 35.9804 212.988 79.6709 160.701C123.361 108.415 225.134 44.2227 248.265 73.7298C271.395 103.238 216.933 148.301 182.986 179.856C149.014 211.435 129.302 246.753 120.744 296.117C113.23 339.463 116.858 375.819 123.456 395.333C127.65 407.735 140.714 407.339 152.09 400.86C215.321 364.842 218.553 362.182 304.806 344.998C402.144 325.607 446.157 357.941 477.512 344.998C508.866 332.056 517.604 292.194 523.772 279.252C529.941 266.31 553.584 226.448 567.977 211.435C582.369 196.422 594.705 107.897 624.518 73.7298C654.33 39.5624 717.751 -25.4345 725.777 60.7894C730.403 110.486 724.749 116.181 725.777 126.534C727.465 143.533 746.851 149.83 755.075 126.534ZM734 212C706.386 212 684 240.878 684 276.5C684 312.123 706.386 341 734 341C761.614 341 784 312.123 784 276.5C784 240.878 761.614 212 734 212ZM886 212C858.386 212 836 240.878 836 276.5C836 312.123 858.386 341 886 341C913.614 341 936 312.123 936 276.5C936 240.878 913.614 212 886 212ZM683.512 72.9183C676.672 69.6749 664.776 84.1988 655.35 95.0462C648.204 103.269 645.402 108.885 640.062 118.38C636.441 124.817 634.831 130.852 633.737 139.521C632.879 146.32 634.831 148.555 637.245 150.164C639.659 151.773 648.108 151.127 654.947 148.555C661.787 145.983 669.168 144.913 675.466 137.289C683.11 128.036 684.797 120.261 685.768 106.673C686.733 93.155 690.351 76.1621 683.512 72.9183ZM846.617 78.3714C839.427 71.4808 830.361 76.5738 826.922 81.0677C823.482 85.5623 797.222 119.715 805.663 129.002C812.407 136.423 841.225 135.404 851.681 134.033C853.708 133.767 855.563 132.69 856.123 130.724C859.348 119.399 853.11 84.5944 846.617 78.3714Z" fill="black"/>
</svg>
