<svg width="1000" height="1000" viewBox="0 0 1000 1000" fill="none" xmlns="http://www.w3.org/2000/svg">
<path d="M17.5005 5.50003C55.0003 -18.4991 110.789 92.5739 131.79 122.074C152.79 151.574 173.261 192.908 187 226.5C200.74 260.091 207.5 302.653 230.5 296.5C344.5 266 386 273.5 547.665 369.881C577.52 387.68 559.864 312.5 622.25 258.438C640.194 242.887 638.579 208.949 691.137 159.196C724.068 128.023 806.118 86.3587 792.43 171.867C784.541 221.151 777.649 225.253 776.068 235.537C773.472 252.421 790.68 263.345 804.444 242.829C818.209 222.312 1006.34 23.0334 933.891 304.96C926.796 332.574 1078.87 418.119 943.986 571.367C910.442 609.476 861.921 599.676 838.79 606.074C804.444 615.574 857.508 640.154 896.253 691.826C934.999 743.499 964.34 787.924 891 810.999C877.999 815.089 904.846 843.574 882.159 869.786C831.713 928.069 798.882 867.144 776.068 843.574C753.016 819.76 666.897 750.342 651 723C638.5 701.5 617.5 709.645 574.104 709.645C487.213 709.645 395.253 713.838 305 661.575C254.001 632.042 233.86 643.864 204.79 655.574C204.79 708.574 211.528 807.31 198.29 834.075C175.289 880.575 117.447 899.578 103.29 869.786C77.2898 815.075 79.4575 771.732 71.2896 732.575C62.7896 691.827 23.5122 721.498 14.7896 661.575C7.50049 611.5 -8.28844 551.425 25.5005 507C70.7284 447.536 85.0058 406.066 94.0005 390C131.79 322.5 106.971 319.911 94.0005 271C81.5005 223.863 72.4215 196.971 57.5005 151.5C35.2113 83.5749 -27.9081 34.5613 17.5005 5.50003ZM732 358.746C704.386 358.848 682.107 387.809 682.239 423.431C682.37 459.053 704.862 487.847 732.476 487.745C760.09 487.643 782.369 458.684 782.238 423.062C782.106 387.439 759.614 358.644 732 358.746ZM884 358.185C856.385 358.287 834.106 387.247 834.238 422.869C834.369 458.491 856.862 487.286 884.476 487.184C912.09 487.081 934.368 458.122 934.237 422.5C934.105 386.878 911.613 358.083 884 358.185ZM903.464 217.096C898.021 208.928 888.219 211.904 883.955 215.501C879.69 219.098 847.158 246.408 853.292 257.151C858.186 265.721 886.023 270.87 896.409 271.788C898.447 271.968 900.492 271.317 901.458 269.513C906.956 259.24 908.373 224.463 903.464 217.096ZM750.392 181.265C744.031 176.696 729.168 187.03 717.515 194.62C708.682 200.374 704.768 204.798 697.535 212.135C692.631 217.108 689.854 222.196 687.106 229.794C684.95 235.754 686.52 238.244 688.677 240.277C690.835 242.311 699.569 243.737 707.026 243.033C714.482 242.33 722.208 243.118 730.064 237.706C739.599 231.137 742.784 224.49 746.333 212.402C749.863 200.377 756.753 185.834 750.392 181.265Z" fill="black"/>
</svg>
