<svg width="1000" height="1000" viewBox="0 0 1000 1000" fill="none" xmlns="http://www.w3.org/2000/svg">
<path d="M755.076 133.534C763.301 110.236 895.913 -129.598 895.914 161.489C895.914 190 1064.5 235 972 417C948.998 462.258 875.317 463.333 827 497.5C818.334 504.333 802 522.4 806 540C811 562 850.5 574 883.5 596.5C916.5 619 968.5 627 977.5 662.5C986.5 697.999 942.001 720.999 926.5 716.5C911.001 712 910.5 724 907 730C903.5 736 882.395 759.468 832 734C785.501 710.5 774.334 706.989 743 688C717.425 672.5 669.001 676.5 655 688L654.645 688.292C639.315 700.89 580.102 749.551 466.5 756C439.361 757.54 428.5 777.5 409.5 799C388.145 823.165 355.5 834.433 335 864.5C314.501 894.566 281.001 998.498 259 998.5C232.345 998.5 172.652 979.5 224.5 786C231.199 761 209 747.628 194.5 756C121.001 798.435 79.0004 799 44.0004 799C-12.4996 799 -1.49958 751.5 16.0004 723.5C33.5008 695.5 144.129 640.509 169.5 600.5C182.5 580 174.5 569.581 163 566.5C56.637 538 7.00041 489 14.5004 324C16.5005 280 33.0004 234 49.5004 205.5C66.0006 177 127 161.5 110 226C93.0004 290.5 92.5005 342 110 386C127.5 430 153.5 445.5 179 463C204.5 480.5 235.667 483.246 244.5 474.5C295.5 424 358.542 376.985 451.5 370C538 363.5 535.771 336.848 538 320.5C550 232.5 566 225.5 582.5 194C593.518 172.966 585.998 142 624.518 80.7321C648.653 42.3436 717.751 -18.4327 725.777 67.7917C730.403 117.488 724.749 123.18 725.777 133.534C727.465 150.533 746.851 156.83 755.076 133.534ZM733.19 222C705.576 222 683.19 250.878 683.19 286.5C683.19 322.122 705.576 350.999 733.19 351C760.804 351 783.19 322.122 783.19 286.5C783.19 250.877 760.804 222 733.19 222ZM885.19 222C857.576 222 835.19 250.878 835.19 286.5C835.19 322.122 857.576 350.999 885.19 351C912.804 351 935.19 322.122 935.19 286.5C935.19 250.877 912.804 222 885.19 222ZM688.644 81.0271C682.633 78.176 672.177 90.9413 663.892 100.475C657.611 107.703 655.149 112.639 650.455 120.984C647.272 126.642 645.859 131.946 644.897 139.564C644.143 145.54 645.858 147.504 647.98 148.919C650.102 150.333 657.527 149.765 663.539 147.505C669.55 145.244 676.037 144.303 681.572 137.603C688.29 129.47 689.774 122.637 690.626 110.694C691.475 98.813 694.655 83.8782 688.644 81.0271ZM849.807 73.3708C842.617 66.4804 833.551 71.5732 830.112 76.0671C826.673 80.561 800.413 114.714 808.853 124.002C815.597 131.422 844.416 130.403 854.872 129.032C856.898 128.766 858.754 127.69 859.314 125.724C862.539 114.399 856.3 79.5932 849.807 73.3708Z" fill="black"/>
</svg>
